<svg id="Layer_1" data-name="Layer 1" xmlns="http://www.w3.org/2000/svg" viewBox="0 0 160 160"><defs><style>.cls-1{fill:#ef6525;}</style></defs><title>rytsar_icon</title><path class="cls-1" d="M28.62,117.85C39.85,105.41,54.31,97.74,69.31,91,80.82,85.86,93,81.89,102.19,72.69c6.53-6.52,10.49-14.1,8.05-23.74-1.6-6.32-5.15-10.1-8.82-10-1.7.07,4.72,4,1,16.2C99.64,64.38,91.2,68.1,81.22,71c-11.36,3.34-23,4.09-31.49,14.9-2.82,3.58-6.42,3.82-9.78,1.35-3.62-2.65-3.91-9.92-2.42-14.47C43.2,55.48,63.46,34.79,73.62,28c5.42-3.61,6.24-7.19,3.46-10.25-1.26-1.38-2.48-3.09.07-3.86s6.29-.41,7.76.43C89,16.71,90.44,19.19,95.72,20c23.06,3.35,40.64,12,52.79,31.79,1.55,2.52,4.21,7.07,5.57,9.36a.25.25,0,0,0,.45-.2,75.41,75.41,0,1,0-134,63.82,1.72,1.72,0,0,0,2.77,0C25.19,122.15,27.28,119.33,28.62,117.85Z"/><path class="cls-1" d="M93.34,139.79c-8.19.28-17.68,4.29-28.9,12.66a1,1,0,0,0,.37,1.78,75.46,75.46,0,0,0,73.29-23.4.27.27,0,0,0-.26-.43C133,131.5,130,138.52,93.34,139.79Z"/></svg>